name ./resultDataOpenSim/trcMotMarkerGrf/sub10/grf-05-07.mot
datacolumns 19
datarows 10
range 1.53600000 1.57200000
endheader

                time	     ground_force_vx	     ground_force_vy	     ground_force_vz	     ground_force_px	     ground_force_py	     ground_force_pz	   l_ground_force_vx	   l_ground_force_vy	   l_ground_force_vz	   l_ground_force_px	   l_ground_force_py	   l_ground_force_pz	     ground_torque_x	     ground_torque_y	     ground_torque_z	   l_ground_torque_x	   l_ground_torque_y	   l_ground_torque_z	
          1.53600000	        -21.79742066	        411.69460379	        -21.66979688	          0.87517990	          0.00000000	          0.02662797	          0.00000000	          0.00000000	          0.00000000	          0.00000000	          0.00000000	          0.00000000	          0.00000000	          3.29907876	          0.00000000	          0.00000000	          0.00000000	          0.00000000	
          1.54000000	        -20.25748254	        404.65779853	        -21.25090542	          0.87644475	          0.00000000	          0.02653964	          0.00000000	          0.00000000	          0.00000000	          0.00000000	          0.00000000	          0.00000000	          0.00000000	          3.35718160	          0.00000000	          0.00000000	          0.00000000	          0.00000000	
          1.54400000	        -19.26673552	        398.16799951	        -21.65872749	          0.87783302	          0.00000000	          0.02647065	          0.00000000	          0.00000000	          0.00000000	          0.00000000	          0.00000000	          0.00000000	          0.00000000	          3.43066126	          0.00000000	          0.00000000	          0.00000000	          0.00000000	
          1.54800000	        -18.59277116	        392.18923591	        -22.72797855	          0.87928992	          0.00000000	          0.02641266	          0.00000000	          0.00000000	          0.00000000	          0.00000000	          0.00000000	          0.00000000	          0.00000000	          3.51192519	          0.00000000	          0.00000000	          0.00000000	          0.00000000	
          1.55200000	        -17.96093720	        386.74230228	        -24.19221609	          0.88074419	          0.00000000	          0.02635681	          0.00000000	          0.00000000	          0.00000000	          0.00000000	          0.00000000	          0.00000000	          0.00000000	          3.59035849	          0.00000000	          0.00000000	          0.00000000	          0.00000000	
          1.55600000	        -17.12834650	        381.86190004	        -25.73305373	          0.88212518	          0.00000000	          0.02629761	          0.00000000	          0.00000000	          0.00000000	          0.00000000	          0.00000000	          0.00000000	          0.00000000	          3.65527602	          0.00000000	          0.00000000	          0.00000000	          0.00000000	
          1.56000000	        -15.94567644	        377.56643472	        -27.03956943	          0.88338757	          0.00000000	          0.02623526	          0.00000000	          0.00000000	          0.00000000	          0.00000000	          0.00000000	          0.00000000	          0.00000000	          3.69878315	          0.00000000	          0.00000000	          0.00000000	          0.00000000	
          1.56400000	        -14.39072498	        373.87222845	        -27.86894637	          0.88451805	          0.00000000	          0.02617054	          0.00000000	          0.00000000	          0.00000000	          0.00000000	          0.00000000	          0.00000000	          0.00000000	          3.71747725	          0.00000000	          0.00000000	          0.00000000	          0.00000000	
          1.56800000	        -12.56632955	        370.82105266	        -28.09326816	          0.88553238	          0.00000000	          0.02609578	          0.00000000	          0.00000000	          0.00000000	          0.00000000	          0.00000000	          0.00000000	          0.00000000	          3.71259981	          0.00000000	          0.00000000	          0.00000000	          0.00000000	
          1.57200000	        -10.66007638	        368.48474276	        -27.71874978	          0.88647094	          0.00000000	          0.02599673	          0.00000000	          0.00000000	          0.00000000	          0.00000000	          0.00000000	          0.00000000	          0.00000000	          3.68903587	          0.00000000	          0.00000000	          0.00000000	          0.00000000	
